<?xml version="1.0" standalone="no"?>
<!DOCTYPE svg PUBLIC "-//W3C//DTD SVG 20010904//EN"
 "http://www.w3.org/TR/2001/REC-SVG-20010904/DTD/svg10.dtd">
<svg version="1.0" xmlns="http://www.w3.org/2000/svg"
 width="300.000000pt" height="300.000000pt" viewBox="0 0 300.000000 300.000000"
 preserveAspectRatio="xMidYMid meet">

<g transform="translate(0.000000,300.000000) scale(0.100000,-0.100000)"
fill="#000000" stroke="none">
<path d="M1285 2874 c-506 -78 -939 -444 -1100 -927 -57 -173 -70 -251 -70
-447 0 -146 4 -192 23 -279 64 -285 182 -502 381 -702 202 -201 432 -324 721
-386 104 -22 410 -25 505 -5 100 22 256 72 333 108 346 159 619 461 737 817
48 144 66 243 72 388 28 633 -375 1202 -982 1388 -196 60 -420 76 -620 45z
m418 -109 c263 -40 507 -165 702 -360 193 -193 314 -425 361 -695 25 -144 15
-380 -21 -520 -122 -471 -466 -813 -943 -937 -99 -26 -121 -28 -302 -28 -182
0 -202 2 -305 29 -508 132 -872 525 -961 1036 -25 144 -15 380 21 520 96 369
337 670 673 839 92 46 258 100 359 115 119 19 297 19 416 1z"/>
<path d="M912 2220 c-23 -73 -25 -110 -8 -123 19 -14 34 -90 71 -365 41 -298
37 -316 -72 -365 -119 -52 -276 -59 -364 -14 -67 34 -84 65 -84 151 1 62 6 83
38 150 41 87 43 118 3 37 -90 -176 -105 -324 -40 -394 46 -50 100 -70 206 -75
204 -10 329 46 368 164 18 53 7 255 -25 474 -30 210 -30 203 -6 195 21 -6 31
17 31 76 0 32 -4 37 -45 57 -25 12 -49 32 -54 44 -7 21 -9 20 -19 -12z"/>
<path d="M1140 2136 c0 -68 53 -141 132 -182 28 -15 31 -14 53 6 18 17 27 19
49 10 37 -14 116 -97 167 -175 23 -36 44 -63 46 -61 3 2 0 29 -7 60 -14 70
-73 159 -148 225 -78 69 -202 142 -251 148 l-41 6 0 -37z"/>
<path d="M1660 2126 c-9 -28 -8 -59 6 -147 14 -90 15 -126 7 -173 -31 -181
-151 -287 -437 -385 -66 -23 -122 -44 -125 -48 -11 -11 256 8 309 22 108 29
164 87 226 236 20 49 40 92 44 94 4 2 12 -43 18 -100 12 -121 38 -187 83 -210
24 -13 89 -15 411 -13 l383 3 0 50 c0 46 -2 50 -25 53 -27 4 -82 44 -200 147
-86 75 -177 125 -228 125 -46 0 -98 -26 -128 -65 -13 -17 -24 -35 -24 -38 0
-4 27 -7 60 -7 77 0 152 -26 239 -84 121 -81 131 -77 -190 -74 l-284 3 -22 45
c-17 34 -30 103 -53 284 -38 296 -41 316 -51 316 -4 0 -13 -15 -19 -34z"/>
<path d="M760 915 l0 -165 25 0 c24 0 25 2 25 70 0 79 6 84 91 78 l44 -3 5
-70 c5 -68 6 -70 33 -73 l28 -3 -3 163 -3 163 -25 0 c-24 0 -25 -3 -28 -68
l-3 -68 -67 3 -67 3 -3 68 c-3 64 -4 67 -27 67 l-25 0 0 -165z"/>
<path d="M1203 1068 c-9 -11 -113 -302 -113 -314 0 -3 12 -4 27 -2 21 2 29 10
37 36 l9 32 73 0 72 0 12 -35 c10 -30 16 -35 42 -35 20 0 29 4 26 13 -3 6 -26
75 -53 152 -27 77 -53 146 -58 153 -5 6 -22 12 -37 12 -15 0 -32 -6 -37 -12z
m66 -127 c11 -36 19 -67 16 -69 -9 -9 -100 -6 -99 4 1 8 28 100 40 133 7 22
19 3 43 -68z"/>
<path d="M1470 916 l0 -166 85 0 c78 0 85 2 85 20 0 18 -7 20 -55 20 -30 0
-55 3 -56 8 0 4 -2 68 -4 142 l-3 135 -26 3 -26 3 0 -165z"/>
<path d="M1803 1068 c-9 -11 -113 -302 -113 -314 0 -3 12 -4 27 -2 21 2 29 10
37 36 9 31 11 32 62 32 29 0 60 3 69 6 12 5 20 -4 32 -35 14 -35 20 -41 45
-41 15 0 28 2 28 3 0 9 -101 291 -110 308 -12 22 -62 26 -77 7z m66 -127 c11
-36 18 -67 15 -70 -9 -10 -93 -11 -98 -2 -4 5 3 36 15 68 11 32 23 64 25 72 7
22 19 3 43 -68z"/>
<path d="M2070 916 l0 -166 85 0 c78 0 85 2 85 20 0 18 -7 20 -54 20 -42 0
-55 4 -61 18 -3 9 -5 73 -4 142 l2 125 -26 3 -27 3 0 -165z"/>
</g>
</svg>
